# xmcd
# 
# Track frame offsets:
#     150
#     22920
#     47132
#     64715
#     87547
#     106775
#     132912
#     147852
#     174185
#     187710
#     209930
#     228585
#     257327
#     275062
#     292510
#     310500
#     326957
# 
# Disc length: 4526
# 
# Revision: 6
# Processed by: cddbd v1.5.2PL0 Copyright (c) Steve Scherf et al.
# Submitted via: fre:ac v1.0.17
# 
DISCID=ec11ac11
DTITLE=????? - Yes-No -Off Course
DYEAR=1994
DGENRE=New Age
TTITLE0=????
TTITLE1=Yes-No
TTITLE2=???????
TTITLE3=I LOVE YOU
TTITLE4=YES-YES-YES
TTITLE5=????
TTITLE6=????
TTITLE7=????
TTITLE8=???
TTITLE9=?????????????
TTITLE10=??????
TTITLE11=???????
TTITLE12=????
TTITLE13=???????
TTITLE14=??????????
TTITLE15=??????
TTITLE16=?????
EXTD=YEAR: 1994
EXTT0=
EXTT1=
EXTT2=
EXTT3=
EXTT4=
EXTT5=
EXTT6=
EXTT7=
EXTT8=
EXTT9=
EXTT10=
EXTT11=
EXTT12=
EXTT13=
EXTT14=
EXTT15=
EXTT16=
PLAYORDER=
